HIERARCHY
ROOT Hips
{
  OFFSET 44.605 84.1087 -4.6582
  CHANNELS 6 Xposition Yposition Zposition Zrotation Xrotation Yrotation
  JOINT spine
  {
    OFFSET 0 6.2448 0.359107
    CHANNELS 3 Zrotation Xrotation Yrotation
    JOINT spine1
    {
      OFFSET 0 9.06941 0
      CHANNELS 3 Zrotation Xrotation Yrotation
      JOINT spine2
      {
        OFFSET 0 8.69014 0
        CHANNELS 3 Zrotation Xrotation Yrotation
        JOINT Neck
        {
          OFFSET 0 22.3112 1.06372
          CHANNELS 3 Zrotation Xrotation Yrotation
          JOINT Head
          {
            OFFSET 0 6.74081 0
            CHANNELS 3 Zrotation Xrotation Yrotation
            End Site
            {
              OFFSET 0 16.3165 -5.38097
            }
          }
        }
        JOINT RightShoulder
        {
          OFFSET -3.65916 9.38468 -0.509514
          CHANNELS 3 Zrotation Xrotation Yrotation
          JOINT RightArm
          {
            OFFSET 0 12.3089 0
            CHANNELS 3 Zrotation Xrotation Yrotation
            JOINT RightArmRoll
            {
              OFFSET 0 6.21375 0
              CHANNELS 3 Zrotation Xrotation Yrotation
              JOINT RightForeArm
              {
                OFFSET 0 18.0985 0
                CHANNELS 3 Zrotation Xrotation Yrotation
                JOINT RightForeArmRoll
                {
                  OFFSET 0 6.97279 0
                  CHANNELS 3 Zrotation Xrotation Yrotation
                  JOINT RightHand
                  {
                    OFFSET 0 13.9929 0
                    CHANNELS 3 Zrotation Xrotation Yrotation
                    End Site
                    {
                      OFFSET 0 0 0
                    }
                  }
                }
              }
            }
          }
        }
        JOINT LeftShoulder
        {
          OFFSET 3.65916 9.38468 -0.509514
          CHANNELS 3 Zrotation Xrotation Yrotation
          JOINT LeftArm
          {
            OFFSET 0 12.3089 0
            CHANNELS 3 Zrotation Xrotation Yrotation
            JOINT LeftArmRoll
            {
              OFFSET 0 6.21375 0
              CHANNELS 3 Zrotation Xrotation Yrotation
              JOINT LeftForeArm
              {
                OFFSET 0 18.0985 0
                CHANNELS 3 Zrotation Xrotation Yrotation
                JOINT LeftForeArmRoll
                {
                  OFFSET 0 6.97279 0
                  CHANNELS 3 Zrotation Xrotation Yrotation
                  JOINT LeftHand
                  {
                    OFFSET 0 13.9929 0
                    CHANNELS 3 Zrotation Xrotation Yrotation
                    End Site
                    {
                      OFFSET 0 0 0
                    }
                  }
                }
              }
            }
          }
        }
      }
    }
  }
  JOINT RightUpLeg
  {
    OFFSET -5.53516 -1.015 -0.851454
    CHANNELS 3 Zrotation Xrotation Yrotation
    JOINT RightUpLegRoll
    {
      OFFSET 0 16.4075 0
      CHANNELS 3 Zrotation Xrotation Yrotation
      JOINT RightLeg
      {
        OFFSET 0 -20.3181 0
        CHANNELS 3 Zrotation Xrotation Yrotation
        JOINT RightLegRoll
        {
          OFFSET 0 20.3846 0
          CHANNELS 3 Zrotation Xrotation Yrotation
          JOINT RightFoot
          {
            OFFSET 0 16.9668 0
            CHANNELS 3 Zrotation Xrotation Yrotation
            JOINT RightToeBase
            {
              OFFSET 0 14.1834 0
              CHANNELS 3 Zrotation Xrotation Yrotation
              End Site
              {
                OFFSET 0.0060118 6.8689 -0.791745
              }
            }
          }
        }
      }
    }
  }
  JOINT LeftUpLeg
  {
    OFFSET 5.53516 -1.015 -0.851454
    CHANNELS 3 Zrotation Xrotation Yrotation
    JOINT LeftUpLegRoll
    {
      OFFSET 0 16.4076 0
      CHANNELS 3 Zrotation Xrotation Yrotation
      JOINT LeftLeg
      {
        OFFSET 0 20.3181 0
        CHANNELS 3 Zrotation Xrotation Yrotation
        JOINT LeftLegRoll
        {
          OFFSET 0 20.5731 0
          CHANNELS 3 Zrotation Xrotation Yrotation
          JOINT LeftFoot
          {
            OFFSET 0 16.7783 0
            CHANNELS 3 Zrotation Xrotation Yrotation
            JOINT LeftToeBase
            {
              OFFSET 0 14.1834 0
              CHANNELS 3 Zrotation Xrotation Yrotation
              End Site
              {
                OFFSET -0.0269423 6.86889 -0.791746
              }
            }
          }
        }
      }
    }
  }
}
MOTION
Frames: 12
Frame Time: 0.00208333
43.656 83.5022 -10.3648 0.367025 3.44819 -1.66875 -0.112017 -1.12087 -0.0161993 -0.224302 1.76112 -0.0378388 -0.22404 3.4062 -0.0341033 3.77017 4.07349 -0.722619 -1.69565 0.625993 0.0920246 65.5863 -1.70315 -1.68242 107.785 10.2606 8.80043 6.52621e-006 -5.76373e-007 -1.63151e-006 10.4404 9.78872 -1.39637 -1.33336e-006 1.20101e-006 -3 8.02893 -4.95143 0.697686 -60.6667 -7.33913 4.59747 -114.348 5.44506 -14.7196 1.99755e-006 -1.00587e-005 -3.55414e-008 -3.39263 18.0513 1.06425 5.98254e-007 9.18861e-007 3 -8.02985 -4.95147 -0.69767 176.886 11.3232 0.34925 180 7.01595e-015 179.155 179.401 18.2951 178.933 1.12062e-006 7.64852e-007 0.274078 -21.3757 73.5347 25.169 8.13387 25.2327 -3.48677 -174.627 6.59983 -2.78769 4.54188e-006 -4.6773e-006 -1.0067 -0.115893 -19.6011 0.817033 -8.88845e-007 -1.61839e-006 -0.908242 31.3672 77.3498 -33.1414 -8.16388 25.783 2.76202 
43.646 83.4941 -10.3557 0.370051 3.45235 -1.64963 -0.111123 -1.11981 -0.017174 -0.222516 1.76328 -0.0385999 -0.222244 3.40836 -0.0348951 3.74718 4.07642 -0.720702 -1.70201 0.594968 0.0862368 65.5654 -1.7016 -1.6795 107.843 10.2823 8.75342 6.52621e-006 -5.76373e-007 -1.63151e-006 10.4542 9.81356 -1.40054 -1.33336e-006 1.20101e-006 -3 8.02893 -4.95143 0.697686 -60.686 -7.3187 4.58574 -114.376 5.49058 -14.6654 1.99755e-006 -1.00587e-005 -3.55414e-008 -3.41049 18.0899 1.06896 5.98254e-007 9.18861e-007 3 -8.02985 -4.95147 -0.69767 176.907 11.3896 0.30576 180 7.01594e-015 179.151 179.471 18.4461 178.917 1.12062e-006 7.64852e-007 0.288133 -21.5747 73.6192 25.302 8.13385 25.2324 -3.48717 -174.628 6.67062 -2.7884 4.54188e-006 -4.6773e-006 -1.0083 -0.109258 -19.7338 0.817973 -8.88845e-007 -1.61839e-006 -0.912564 31.3956 77.3617 -33.1744 -8.16514 25.8028 2.73625 
43.6814 83.4677 -10.4 0.373773 3.45604 -1.6304 -0.110311 -1.11869 -0.0182127 -0.220896 1.76558 -0.0394332 -0.220612 3.41066 -0.0357561 3.7233 4.08019 -0.718768 -1.7077 0.563262 0.0802809 65.5434 -1.70024 -1.67658 107.902 10.3038 8.70661 6.52621e-006 -5.76373e-007 -1.63151e-006 10.4676 9.83815 -1.4047 -1.33336e-006 1.20101e-006 -3 8.02893 -4.95143 0.697686 -60.7062 -7.29772 4.5737 -114.403 5.5355 -14.6122 1.99755e-006 -1.00587e-005 -3.55414e-008 -3.42824 18.1284 1.07364 5.98254e-007 9.18861e-007 3 -8.02985 -4.95147 -0.69767 176.928 11.4541 0.261212 180 7.01593e-015 179.147 179.543 18.5934 178.9 1.12062e-006 7.64852e-007 0.302044 -21.7723 73.7021 25.434 8.13382 25.232 -3.48777 -174.629 6.73831 -2.78839 4.54188e-006 -4.6773e-006 -1.00999 -0.102861 -19.8616 0.818813 -8.88845e-007 -1.61839e-006 -0.916558 31.4189 77.3715 -33.2018 -8.16642 25.8228 2.71031 
43.6691 83.4484 -10.388 0.377981 3.45939 -1.6111 -0.109558 -1.11752 -0.0192962 -0.219391 1.76799 -0.040317 -0.219096 3.41307 -0.0366658 3.69878 4.08454 -0.716822 -1.71292 0.53108 0.0742074 65.5207 -1.69901 -1.67366 107.962 10.3251 8.65995 6.52621e-006 -5.76373e-007 -1.63151e-006 10.4808 9.86256 -1.40885 -1.33336e-006 1.20101e-006 -3 8.02893 -4.95143 0.697686 -60.7269 -7.27634 4.56146 -114.43 5.58 -14.5596 1.99755e-006 -1.00587e-005 -3.55414e-008 -3.44592 18.1669 1.07831 5.98254e-007 9.18861e-007 3 -8.02985 -4.95147 -0.69767 176.948 11.5172 0.215916 180 7.01592e-015 179.143 179.616 18.7382 178.883 1.12062e-006 7.64852e-007 0.315854 -21.9695 73.7838 25.5655 8.13378 25.2314 -3.48851 -174.632 6.80382 -2.78789 4.54188e-006 -4.6773e-006 -1.01174 -0.0966295 -19.986 0.819583 -8.88845e-007 -1.61839e-006 -0.920323 31.4387 77.3796 -33.2255 -8.1677 25.8428 2.68423 
43.6792 83.4315 -10.393 0.382467 3.46255 -1.59175 -0.108837 -1.11632 -0.0204052 -0.217953 1.77046 -0.0412296 -0.217646 3.41554 -0.0376032 3.67391 4.08922 -0.714869 -1.71788 0.498626 0.0680666 65.4975 -1.69787 -1.67074 108.023 10.3463 8.61338 6.52621e-006 -5.76373e-007 -1.63151e-006 10.4939 9.88686 -1.41299 -1.33336e-006 1.20101e-006 -3 8.02893 -4.95143 0.697686 -60.748 -7.25474 4.54909 -114.457 5.62426 -14.5074 1.99755e-006 -1.00587e-005 -3.55414e-008 -3.46356 18.2053 1.08296 5.98254e-007 9.18861e-007 3 -8.02985 -4.95147 -0.69767 176.968 11.5795 0.170186 180 7.01592e-015 179.139 179.691 18.8815 178.865 1.12062e-006 7.64852e-007 0.329606 -22.1668 73.8648 25.6973 8.13374 25.2308 -3.48933 -174.635 6.8681 -2.7871 4.54188e-006 -4.6773e-006 -1.01352 -0.0904911 -20.1084 0.820315 -8.88845e-007 -1.61838e-006 -0.923956 31.4564 77.3869 -33.2469 -8.16898 25.8629 2.65807 
43.6751 83.4421 -10.3893 0.38702 3.46567 -1.57238 -0.108124 -1.11512 -0.0215206 -0.216532 1.77295 -0.0421494 -0.216213 3.41803 -0.0385476 3.64895 4.09399 -0.712914 -1.72278 0.466103 0.0619092 65.4742 -1.69674 -1.66782 108.083 10.3675 8.56681 6.52621e-006 -5.76373e-007 -1.63151e-006 10.5069 9.91114 -1.41714 -1.33336e-006 1.20101e-006 -3 8.02893 -4.95143 0.697686 -60.7692 -7.23309 4.53669 -114.483 5.66847 -14.4552 1.99755e-006 -1.00587e-005 -3.55414e-008 -3.4812 18.2438 1.08762 5.98254e-007 9.18861e-007 3 -8.02985 -4.95147 -0.69767 176.988 11.6416 0.124331 180 7.01591e-015 179.135 179.766 19.0245 178.848 1.12062e-006 7.64852e-007 0.343344 -22.3653 73.9456 25.8302 8.13369 25.2302 -3.49017 -174.638 6.93207 -2.78624 4.54188e-006 -4.6773e-006 -1.01531 -0.0843736 -20.2304 0.821042 -8.88845e-007 -1.61838e-006 -0.927557 31.4737 77.394 -33.2678 -8.17024 25.883 2.63189 
43.6777 83.4248 -10.3837 0.391431 3.46888 -1.55305 -0.107395 -1.11393 -0.0226232 -0.215077 1.7754 -0.0430548 -0.214746 3.42048 -0.0394781 3.62416 4.09859 -0.710963 -1.72781 0.433717 0.0557854 65.4512 -1.69557 -1.6649 108.143 10.3887 8.52021 6.52621e-006 -5.76373e-007 -1.63151e-006 10.52 9.93547 -1.42129 -1.33336e-006 1.20101e-006 -3 8.02893 -4.95143 0.697686 -60.7902 -7.21154 4.52436 -114.51 5.71283 -14.4029 1.99755e-006 -1.00587e-005 -3.55414e-008 -3.49886 18.2822 1.09228 5.98254e-007 9.18861e-007 3 -8.02985 -4.95147 -0.69767 177.008 11.7041 0.0786636 180 7.0159e-015 179.131 179.84 19.1682 178.83 1.12062e-006 7.64852e-007 0.357111 -22.5657 74.0266 25.965 8.13365 25.2296 -3.49097 -174.641 6.99665 -2.78552 4.54188e-006 -4.6773e-006 -1.01709 -0.0782042 -20.3533 0.821795 -8.88845e-007 -1.61838e-006 -0.931223 31.492 77.4015 -33.2898 -8.17147 25.903 2.60573 
43.6779 83.4172 -10.3882 0.395491 3.47233 -1.53376 -0.106624 -1.11278 -0.0236938 -0.213539 1.77778 -0.0439242 -0.213196 3.42286 -0.0403739 3.59983 4.10277 -0.70902 -1.7332 0.401671 0.0497459 65.4287 -1.6943 -1.66198 108.203 10.4101 8.47348 6.52621e-006 -5.76373e-007 -1.63151e-006 10.5333 9.95993 -1.42545 -1.33336e-006 1.20101e-006 -3 8.02893 -4.95143 0.697686 -60.8108 -7.19028 4.51218 -114.537 5.75751 -14.3501 1.99755e-006 -1.00587e-005 -3.55414e-008 -3.51659 18.3207 1.09696 5.98254e-007 9.18861e-007 3 -8.02985 -4.95147 -0.69767 177.029 11.7676 0.0334946 180 7.01589e-015 179.127 179.914 19.3136 178.812 1.12062e-006 7.64852e-007 0.37095 -22.7689 74.1082 26.1025 8.13362 25.2291 -3.49167 -174.643 7.06279 -2.78518 4.54188e-006 -4.6773e-006 -1.01882 -0.0719097 -20.4786 0.822607 -8.88845e-007 -1.61838e-006 -0.935053 31.5129 77.4101 -33.3147 -8.17266 25.923 2.57966 
43.6567 83.4032 -10.3654 0.398989 3.47615 -1.51456 -0.105788 -1.11167 -0.0247133 -0.211869 1.78004 -0.0447358 -0.211515 3.42512 -0.0412142 3.57621 4.10628 -0.70709 -1.73913 0.370169 0.0438409 65.407 -1.69289 -1.65906 108.262 10.4316 8.42658 6.52621e-006 -5.76373e-007 -1.63151e-006 10.5469 9.98459 -1.42961 -1.33336e-006 1.20101e-006 -3 8.02893 -4.95143 0.697686 -60.8307 -7.16945 4.50025 -114.565 5.80271 -14.2966 1.99755e-006 -1.00587e-005 -3.55414e-008 -3.53441 18.3593 1.10167 5.98254e-007 9.18861e-007 3 -8.02985 -4.95147 -0.69767 177.05 11.8326 -0.0108647 180 7.01589e-015 179.123 179.986 19.462 178.796 1.12062e-006 7.64852e-007 0.384904 -22.9757 74.191 26.2436 8.13359 25.2287 -3.49221 -174.645 7.13141 -2.78541 4.54188e-006 -4.6773e-006 -1.02048 -0.0654166 -20.6079 0.823511 -8.88845e-007 -1.61838e-006 -0.939145 31.538 77.4205 -33.344 -8.17381 25.9429 2.55371 
43.6617 83.3941 -10.368 0.401716 3.4805 -1.49549 -0.10486 -1.11064 -0.0256625 -0.210016 1.78214 -0.0454682 -0.209652 3.42723 -0.0419782 3.55358 4.10888 -0.70518 -1.74582 0.339417 0.038121 65.3865 -1.69127 -1.65615 108.32 10.4535 8.37944 6.52621e-006 -5.76373e-007 -1.63151e-006 10.5608 10.0095 -1.4338 -1.33336e-006 1.20101e-006 -3 8.02893 -4.95143 0.697686 -60.8495 -7.14924 4.48866 -114.594 5.84861 -14.2422 1.99755e-006 -1.00587e-005 -3.55414e-008 -3.55237 18.3979 1.10641 5.98254e-007 9.18861e-007 3 -8.02985 -4.95147 -0.69767 177.072 11.8997 -0.0541035 180 7.01588e-015 179.119 -179.944 19.6144 178.779 1.12062e-006 7.64852e-007 0.399017 -23.1873 74.2754 26.3893 8.13357 25.2284 -3.49254 -174.644 7.20343 -2.78644 4.54188e-006 -4.6773e-006 -1.02205 -0.0586508 -20.7426 0.82454 -8.88845e-007 -1.61838e-006 -0.943598 31.5689 77.4333 -33.3796 -8.1749 25.9626 2.52795 
43.6196 83.3766 -10.3187 0.40346 3.48552 -1.47656 -0.103817 -1.10969 -0.0265221 -0.207931 1.78404 -0.0460996 -0.207558 3.42912 -0.042645 3.5322 4.11031 -0.703293 -1.75347 0.309617 0.0326366 65.3675 -1.68937 -1.65323 108.377 10.4757 8.33199 6.52621e-006 -5.76373e-007 -1.63151e-006 10.5753 10.0348 -1.438 -1.33336e-006 1.20101e-006 -3 8.02893 -4.95143 0.697686 -60.8672 -7.1298 4.47749 -114.624 5.89541 -14.1865 1.99755e-006 -1.00587e-005 -3.55414e-008 -3.5705 18.4367 1.11121 5.98254e-007 9.18861e-007 3 -8.02985 -4.95147 -0.69767 177.095 11.9694 -0.0959107 180 7.01587e-015 179.115 -179.878 19.772 178.764 1.12062e-006 7.64851e-007 0.413331 -23.4045 74.3618 26.5405 8.13357 25.2284 -3.49258 -174.642 7.2798 -2.78848 4.54188e-006 -4.6773e-006 -1.02351 -0.0515376 -20.8841 0.825728 -8.88845e-007 -1.61838e-006 -0.948511 31.6071 77.4491 -33.4232 -8.17593 25.9822 2.50242 
43.6237 83.3505 -10.3181 0.404012 3.49134 -1.45782 -0.102633 -1.10885 -0.0272731 -0.205565 1.78568 -0.0466084 -0.205183 3.43077 -0.0431939 3.51235 4.11032 -0.701435 -1.76227 0.280975 0.0274381 65.3502 -1.68716 -1.65032 108.432 10.4984 8.28417 6.52621e-006 -5.76373e-007 -1.63151e-006 10.5904 10.0606 -1.44222 -1.33336e-006 1.20101e-006 -3 8.02893 -4.95143 0.697686 -60.8834 -7.11131 4.46685 -114.656 5.94328 -14.1293 1.99755e-006 -1.00587e-005 -3.55414e-008 -3.58883 18.4755 1.11606 5.98254e-007 9.18861e-007 3 -8.02985 -4.95147 -0.69767 177.119 12.0425 -0.135975 180 7.01586e-015 179.111 -179.814 19.9356 178.749 1.12062e-006 7.64851e-007 0.427891 -23.6284 74.4507 26.6981 8.13358 25.2286 -3.4923 -174.638 7.36143 -2.79175 4.54188e-006 -4.6773e-006 -1.02482 -0.044002 -21.034 0.827109 -8.88845e-007 -1.61838e-006 -0.953981 31.6544 77.4687 -33.4764 -8.17689 26.0015 2.47718 
